<svg width="35" height="39" fill="none" xmlns="http://www.w3.org/2000/svg"><path d="M17.66 21.98c4.526-6.361 6.855-9.862 11.023-15.721-.223-.488-.31-.745-.457-1.068-3.607 5.071-11.024 15.727-11.024 15.727.223.49.274.66.458 1.063Z" fill="#EBE8E8"/><path d="M33.596 35.846c-4.55-1.918-8.017-3.413-12.752-5.408a320.128 320.128 0 0 0-6.95-7.627c.986-1.403 1.88-2.684 2.552-3.648.167.388.335.773.498 1.142 4.443-6.246 7.064-10.161 11.02-15.723-.536-1.21-1.279-3.039-1.973-4.604C22.12 5.42 18.569 10.644 14.971 15.7c.116.262.267.615.44 1.025-1.136 1.617-2.032 2.91-3.089 4.415l-.333-.352c-.598.846-1.18 1.688-1.967 2.8l.335.358c-.554.799-1.129 1.576-1.746 2.485-.524.114-.836.207-1.43.337.124.433.187.666.342 1.138.537.59.993 1.098 1.553 1.712.921-1.32 1.912-2.68 2.842-3.996 2.12 2.283 4.209 4.56 6.154 6.77 4.919 2.13 9.838 4.261 14.757 6.196.593-.388 1.01-.638 1.577-1.008-.34-.73-.48-1.024-.81-1.734Zm-.97 1.467c-.266.235-.67.16-.832-.068-.172-.24-.152-.635.164-.808a.553.553 0 0 1 .676.076.523.523 0 0 1-.007.8ZM4.9 1.646 4.59-.022 1.574.66.876 4.952V18.93l-.774 6.996.774 12.66H4.9L4.36 24.285 5.906 9.97 4.9 1.646Z" fill="#EBE8E8"/></svg>