<svg width="32" height="32" viewBox="0 0 32 32" fill="none" xmlns="http://www.w3.org/2000/svg">
<path d="M29.0714 13.3885H27.9974V13.3332H15.9974V18.6665H23.5327C22.4334 21.7712 19.4794 23.9998 15.9974 23.9998C11.5794 23.9998 7.9974 20.4178 7.9974 15.9998C7.9974 11.5818 11.5794 7.99984 15.9974 7.99984C18.0367 7.99984 19.8921 8.76917 21.3047 10.0258L25.0761 6.2545C22.6947 4.03517 19.5094 2.6665 15.9974 2.6665C8.63406 2.6665 2.66406 8.6365 2.66406 15.9998C2.66406 23.3632 8.63406 29.3332 15.9974 29.3332C23.3607 29.3332 29.3307 23.3632 29.3307 15.9998C29.3307 15.1058 29.2387 14.2332 29.0714 13.3885Z" fill="#FFC107"/>
<path d="M4.2041 9.79384L8.58477 13.0065C9.7701 10.0718 12.6408 7.99984 16.0001 7.99984C18.0394 7.99984 19.8948 8.76917 21.3074 10.0258L25.0788 6.2545C22.6974 4.03517 19.5121 2.6665 16.0001 2.6665C10.8788 2.6665 6.43743 5.55784 4.2041 9.79384Z" fill="#FF3D00"/>
<path d="M16.0018 29.3333C19.4458 29.3333 22.5752 28.0153 24.9412 25.872L20.8145 22.38C19.4309 23.4322 17.7401 24.0013 16.0018 24C12.5338 24 9.58917 21.7886 8.47984 18.7026L4.13184 22.0526C6.3385 26.3706 10.8198 29.3333 16.0018 29.3333Z" fill="#4CAF50"/>
<path d="M29.074 13.3888H28V13.3335H16V18.6668H23.5353C23.0095 20.1444 22.0622 21.4356 20.8107 22.3808L20.8127 22.3795L24.9393 25.8715C24.6473 26.1368 29.3333 22.6668 29.3333 16.0002C29.3333 15.1062 29.2413 14.2335 29.074 13.3888Z" fill="#1976D2"/>
</svg>
