<svg width="648" height="314" viewBox="0 0 648 314" fill="none" xmlns="http://www.w3.org/2000/svg">
<path d="M325.678 114C347.174 81.0409 358.235 62.8987 378.032 32.5458C376.974 30.0152 376.56 28.6869 375.859 27.0166C358.724 53.2892 323.5 108.496 323.5 108.496C324.563 111.032 324.803 111.917 325.678 114Z" fill="#FEFEFE"/>
<path d="M401.369 185.83C379.755 175.899 363.293 168.151 340.8 157.812C330.205 144.66 319.3 131.69 307.792 118.297C312.478 111.032 316.717 104.396 319.916 99.4002C320.706 101.408 321.501 103.405 322.278 105.312C343.383 72.9515 355.832 52.666 374.622 23.8577C372.072 17.5838 368.549 8.1102 365.251 0C346.86 28.1995 329.993 55.257 312.906 81.4541C313.456 82.8125 314.176 84.6439 315 86.767C309.599 95.1438 305.345 101.845 300.326 109.639C299.799 109.03 299.272 108.421 298.745 107.812C295.903 112.194 293.137 116.556 289.401 122.317C289.933 122.936 290.46 123.555 290.991 124.174C288.361 128.314 285.633 132.339 282.697 137.048C280.208 137.642 278.726 138.12 275.903 138.794C276.496 141.038 276.797 142.245 277.536 144.691C280.086 147.744 282.255 150.381 284.908 153.555C289.288 146.718 293.993 139.674 298.411 132.857C308.483 144.685 318.401 156.478 327.636 167.924C351 178.963 374.368 190.006 397.732 200.028C400.55 198.021 402.526 196.728 405.222 194.806C403.603 191.032 402.94 189.513 401.369 185.83ZM396.763 193.432C395.497 194.65 393.578 194.257 392.806 193.085C391.988 191.842 392.086 189.795 393.587 188.899C394.161 188.557 395.441 187.983 396.8 189.292C397.953 190.398 397.972 192.27 396.763 193.432Z" fill="#FEFEFE"/>
<path d="M265.073 8.64838L263.6 0.00488281L249.265 3.54176L245.957 25.7744V98.2027L242.278 134.447L245.957 200.038H265.073L262.499 125.934L269.848 51.7803L265.073 8.64838Z" fill="#FEFEFE"/>
<path d="M0 301.828V286.78L11.7242 283.404V254.289H32.2696V277.432L72.4762 265.82V254.294H93.0217V275.002L61.3025 284.164L79.8673 300.576H93.4921V313.194H67.6773L41.7826 289.718L32.2744 292.506V313.194H11.7289V298.478L0 301.828Z" fill="#FEFEFE"/>
<path d="M98.9668 301.577V288.37L110.691 286.272V254.284H192.454V284.743L131.236 295.766V313.184H110.691V299.474L98.9668 301.577ZM131.236 282.564L171.913 275.249V266.238H131.236V282.564Z" fill="#FEFEFE"/>
<path d="M197.15 266.233V254.284H290.718V275.999L270.172 272.96V266.233H229.495V277.759H262.936V289.708H229.495V301.235H270.172V294.508L290.718 291.469V313.184H208.955V266.233H197.15Z" fill="#FEFEFE"/>
<path d="M304.849 313.189V251.939L354.817 267.662L404.706 251.939V313.189H377.48V301.24H384.184V272.461L365.05 278.267V313.189H344.505V278.267L325.394 272.461V301.24H332.08V313.189H304.849Z" fill="#FEFEFE"/>
<path d="M412.559 266.233V254.284H444.824V313.184H424.283V266.233H412.559Z" fill="#FEFEFE"/>
<path d="M452.681 266.233V254.284H484.946V277.593H525.543V254.284H546.088V313.184H525.543V289.537H484.946V313.184H464.405V266.233H452.681Z" fill="#FEFEFE"/>
<path d="M553.934 280.466V267.325L565.733 269.443V254.289H586.279V273.216L647.496 284.239V313.189H565.733V282.564L553.934 280.466ZM586.279 301.24H626.955V293.758L586.279 286.443V301.24Z" fill="#FEFEFE"/>
</svg>
