<svg xmlns="http://www.w3.org/2000/svg" aria-hidden="true" style="position:absolute;width:0;height:0;overflow:hidden"><defs><symbol id="icon-logoGroup" viewBox="0 0 125 32"><path fill="#ddd" d="M14.515 18.146c3.741-5.246 5.666-8.134 9.112-12.966-.184-.403-.256-.614-.378-.88-2.982 4.182-9.112 12.97-9.112 12.97.185.404.227.545.379.876z" style="fill:var(--color1, #ddd)"/><path fill="#ddd" d="M27.688 29.58c-3.762-1.581-6.626-2.814-10.541-4.46a265.51 265.51 0 0 0-5.745-6.29c.816-1.156 1.553-2.213 2.11-3.008.138.319.276.637.411.941 3.673-5.151 5.84-8.38 9.11-12.966-.444-.999-1.057-2.507-1.631-3.798-3.201 4.489-6.136 8.796-9.11 12.966.096.216.221.508.364.846-.94 1.333-1.68 2.4-2.554 3.641l-.275-.291c-.495.698-.976 1.392-1.626 2.309l.277.296c-.458.659-.933 1.3-1.444 2.049-.433.095-.691.171-1.182.278.103.357.156.549.284.939.444.486.821.906 1.283 1.411.762-1.088 1.581-2.209 2.35-3.295a284.358 284.358 0 0 1 5.086 5.582c4.066 1.757 8.133 3.515 12.199 5.11.49-.32.834-.525 1.303-.831-.282-.601-.397-.842-.671-1.429zm-.802 1.21c-.22.194-.554.131-.689-.055-.142-.198-.125-.524.136-.666a.458.458 0 0 1 .559.062.429.429 0 0 1-.007.659zM3.967 1.376 3.711 0 1.216.563.64 4.102v11.529L0 21.4l.64 10.44h3.327l-.448-11.795L4.798 8.242l-.831-6.866zM33.379 14.211v-2.408l1.588-.54V6.604h2.783v3.703l5.446-1.858V6.605h2.783v3.314l-4.297 1.466 2.515 2.626h1.846v2.019h-3.497l-3.508-3.756-1.288.446v3.31h-2.783v-2.355l-1.589.536zM46.786 14.171v-2.113l1.588-.336V6.604H59.45v4.874l-8.293 1.764v2.787h-2.783v-2.194l-1.588.336zm4.371-3.043 5.51-1.171V8.515h-5.51v2.612zM60.084 8.515V6.603h12.675v3.474l-2.783-.486V8.515h-5.51v1.844h4.53v1.912h-4.53v1.844h5.51v-1.076l2.783-.486v3.475H61.683V8.515h-1.599zM74.673 16.029v-9.8l6.769 2.516L88.2 6.229v9.8h-3.688v-1.912h.908V9.512l-2.592.929v5.588h-2.783v-5.588l-2.589-.929v4.605h.906v1.912h-3.689zM89.266 8.515V6.603h4.371v9.424h-2.783V8.514h-1.588zM94.701 8.515V6.603h4.371v3.73h5.499v-3.73h2.783v9.424h-2.783v-3.784h-5.499v3.784H96.29V8.514h-1.588zM108.415 10.793V8.69l1.598.339V6.604h2.783v3.029l8.293 1.764v4.632h-11.076v-4.9l-1.598-.336zm4.382 3.324h5.51V12.92l-5.51-1.171v2.368zM42.616 25.013l-1.057-3.479h-1.314v4.208h.897v-3.075h.064l.935 3.075h1.019l.929-3.075h.064v3.075h.897v-4.208h-1.313l-1.057 3.479h-.063zM46.842 21.614h-.897v4.127h.897v-4.127zm.031-1.092c0-.324-.198-.607-.481-.607-.288 0-.481.283-.481.607s.193.607.481.607.481-.283.481-.607zM49.532 21.371c-1.153 0-1.953.809-1.953 2.265s.801 2.265 2.018 2.265c.544 0 1.115-.242 1.441-.607l-.256-.485c-.352.332-.704.526-1.121.526-.672 0-1.121-.485-1.121-1.699s.449-1.699 1.057-1.699c.416 0 .769.194 1.121.526l.256-.485c-.326-.362-.897-.605-1.442-.605zM54.784 25.741l.128 1.214h.737v-1.781h-.544v-3.641h-.897v3.641h-1.601v-3.641h-.897v4.208h3.075zM58.243 25.337c-.589 0-.999-.356-1.102-1.254h2.735v-.567c0-1.335-.833-2.144-1.858-2.144-1.089 0-1.858.809-1.858 2.265s.801 2.265 2.018 2.265c.544 0 1.115-.242 1.441-.607l-.256-.485c-.352.332-.704.526-1.12.526zm-.224-3.439c.449 0 .897.485.897 1.618h-1.793c.019-1.165.41-1.618.897-1.618zM64.649 21.371c-1.153 0-1.953.809-1.953 2.265s.801 2.265 2.018 2.265c.544 0 1.115-.242 1.441-.607l-.256-.485c-.352.332-.704.526-1.121.526-.673 0-1.121-.485-1.121-1.699s.449-1.699 1.057-1.699c.416 0 .769.194 1.121.526l.256-.485c-.327-.362-.897-.605-1.442-.605zM69.262 21.534l-1.473 3.156h-.064v-3.156h-.897v4.208h1.153l1.473-3.156h.065v3.156h.897v-4.208h-1.153zM70.958 25.781c.045.016.09.032.134.04a.984.984 0 0 0 .282.041c.641 0 1.012-.405 1.057-1.497l.096-2.265h1.345v3.641h.897v-4.208h-3.074l-.128 2.832c-.032.729-.192.931-.416.931h-.192v.485h-.001zM78.1 21.534l-1.473 3.156h-.064v-3.156h-.897v4.208h1.153l1.473-3.156h.064v3.156h.897v-4.208H78.1zM85.595 21.534h-3.587v.567h1.345v3.641h.897v-3.641h1.345v-.567h-.001zM86.842 24.406c0-.51.243-.769.737-.769h.897v1.538h-.897c-.493-.001-.737-.259-.737-.769zm.737-1.335c-1.16 0-1.698.437-1.698 1.336s.538 1.335 1.698 1.335h1.793v-2.67c0-1.011-.608-1.699-1.697-1.699-.403 0-.974.17-1.345.486l.224.485a1.64 1.64 0 0 1 1.057-.405c.512 0 .865.356.865 1.133h-.897zM94.274 21.371c-1.153 0-1.953.809-1.953 2.265s.801 2.265 2.018 2.265c.544 0 1.115-.242 1.441-.607l-.256-.485c-.353.332-.704.526-1.121.526-.672 0-1.121-.485-1.121-1.699s.449-1.699 1.057-1.699c.416 0 .769.194 1.121.526l.256-.485c-.327-.362-.897-.605-1.441-.605zM99.654 21.534h-3.587v.567h1.345v3.641h.897v-3.641h1.345v-.567h-.001zM102.6 21.534l-1.473 3.156h-.064v-3.156h-.897v4.208h1.153l1.473-3.156h.064v3.156h.897v-4.208H102.6zM104.298 25.781c.045.016.09.032.135.04a.984.984 0 0 0 .282.041c.64 0 1.012-.405 1.057-1.497l.096-2.265h1.345v3.641h.897v-4.208h-3.074l-.128 2.832c-.032.729-.192.931-.416.931h-.192v.485h-.001zM112.369 21.371c-.974 0-1.742.696-1.845 1.942h-.621v-1.78h-.897v4.208h.897V23.88h.615c.084 1.303.846 2.023 1.851 2.023 1.057 0 1.858-.809 1.858-2.265s-.801-2.266-1.858-2.266zm0 4.006c-.449 0-.897-.485-.897-1.74s.449-1.74.897-1.74c.449 0 .897.485.897 1.74s-.448 1.74-.897 1.74z" style="fill:var(--color1, #ddd)"/></symbol><symbol id="icon-Vector-1" viewBox="0 0 28 32"><path d="M1.944 12.249c3.631-.06 13.885-.145 25.853 0L-5.062 31.865V.181l7.006 12.068z"/></symbol><symbol id="icon-Vector-2" viewBox="0 0 27 32"><path d="M-.135 0h26.869l-9.445 25.524L-.135 32V0z"/></symbol><symbol id="icon-prev" viewBox="0 0 35 32"><path fill="none" stroke="#fff" stroke-width="2.667" d="M34.667 16h-32m0 0 14.4-14.4M2.667 16l14.4 14.4" style="stroke:var(--color2, #fff)"/></symbol><symbol id="icon-next" viewBox="0 0 35 32"><path fill="none" stroke="#fff" stroke-width="2.667" d="M0 16h32m0 0L17.6 1.6M32 16 17.6 30.4" style="stroke:var(--color2, #fff)"/></symbol><symbol id="icon-close" viewBox="0 0 32 32"><path fill="#fff" d="M3.2 32 0 28.8 12.8 16 0 3.2 3.2 0 16 12.8 28.8 0 32 3.2 19.2 16 32 28.8 28.8 32 16 19.2 3.2 32z" style="fill:var(--color2, #fff)"/></symbol><symbol id="icon-logotype-small" viewBox="0 0 104 32"><path fill="#ddd" d="M-.055 15.916v-2.697l1.801-.605V7.396h3.156v4.148l6.176-2.081V7.397h3.156v3.711L9.362 12.75l2.852 2.941h2.093v2.261h-3.965l-3.978-4.207-1.46.5v3.708H1.748v-2.637l-1.802.6zM15.147 15.871v-2.367l1.801-.376V7.395h12.559v5.458l-9.403 1.975v3.122h-3.156v-2.457l-1.801.377zm4.957-3.407 6.248-1.311V9.538h-6.248v2.926zM30.228 9.537V7.396h14.373v3.891l-3.156-.545V9.536h-6.248v2.066h5.137v2.141h-5.137v2.066h6.248v-1.206l3.156-.545v3.891H32.042V9.535h-1.813zM46.771 17.952V6.975l7.676 2.818 7.663-2.818v10.977h-4.182v-2.141h1.03v-5.157l-2.939 1.04v6.258h-3.156v-6.258l-2.936-1.04v5.157h1.027v2.141h-4.183zM63.316 9.537V7.396h4.956v10.555h-3.155V9.537h-1.801zM69.479 9.537V7.396h4.956v4.177h6.236V7.396h3.156v10.555h-3.156v-4.238h-6.236v4.238H71.28V9.537h-1.801zM85.033 12.088V9.733l1.812.38V7.397h3.156v3.392l9.403 1.975v5.188H86.845v-5.488l-1.812-.376zm4.969 3.723h6.248V14.47l-6.248-1.311v2.652zM10.417 28.015l-1.198-3.897H7.73v4.713h1.017v-3.444h.072l1.06 3.444h1.155l1.054-3.444h.072v3.444h1.017v-4.713h-1.489l-1.199 3.897h-.072zM15.21 24.208h-1.017v4.622h1.017v-4.622zm.036-1.223c0-.362-.225-.68-.545-.68-.327 0-.545.317-.545.68s.218.68.545.68c.327 0 .545-.317.545-.68zM18.26 23.936c-1.307 0-2.215.906-2.215 2.537s.908 2.537 2.288 2.537c.617 0 1.264-.271 1.634-.68l-.291-.544c-.4.371-.799.589-1.271.589-.762 0-1.271-.544-1.271-1.903s.509-1.903 1.199-1.903c.472 0 .872.217 1.271.589l.291-.544c-.37-.406-1.017-.678-1.635-.678zM24.216 28.83l.145 1.36h.835v-1.994h-.617v-4.078h-1.017v4.078h-1.816v-4.078h-1.017v4.713h3.486zM28.139 28.378c-.668 0-1.133-.398-1.25-1.405h3.102v-.635c0-1.495-.945-2.401-2.107-2.401-1.235 0-2.107.906-2.107 2.537s.908 2.537 2.288 2.537c.617 0 1.264-.271 1.634-.68l-.291-.544c-.399.372-.799.59-1.27.59zm-.255-3.852c.509 0 1.017.544 1.017 1.812h-2.034c.022-1.305.465-1.812 1.017-1.812zM35.402 23.936c-1.307 0-2.215.906-2.215 2.537s.908 2.537 2.288 2.537c.617 0 1.264-.271 1.634-.68l-.291-.544c-.4.371-.799.589-1.271.589-.762 0-1.271-.544-1.271-1.903s.509-1.903 1.199-1.903c.472 0 .872.217 1.271.589l.291-.544c-.371-.406-1.017-.678-1.635-.678zM40.633 24.118l-1.671 3.534h-.072v-3.534h-1.017v4.713h1.307l1.67-3.534h.073v3.534h1.017v-4.713h-1.307zM42.556 28.875c.051.018.102.036.152.045.094.028.203.046.319.046.726 0 1.148-.454 1.198-1.677l.109-2.537h1.526v4.078h1.017v-4.713h-3.486l-.145 3.172c-.036.816-.218 1.042-.472 1.042h-.218v.544h-.001zM50.655 24.118l-1.671 3.534h-.072v-3.534h-1.017v4.713h1.307l1.67-3.534h.073v3.534h1.017v-4.713h-1.307zM59.153 24.118h-4.068v.635h1.525v4.078h1.018v-4.078h1.525v-.635h-.001zM60.569 27.335c0-.571.276-.861.836-.861h1.017v1.722h-1.017c-.559-.001-.836-.29-.836-.861zm.836-1.496c-1.315 0-1.925.49-1.925 1.496s.61 1.495 1.925 1.495h2.034v-2.991c0-1.132-.689-1.903-1.924-1.903-.458 0-1.105.19-1.526.545l.254.544a1.873 1.873 0 0 1 1.199-.453c.581 0 .981.398.981 1.269h-1.018zM68.995 23.936c-1.308 0-2.215.906-2.215 2.537s.909 2.537 2.288 2.537c.618 0 1.264-.271 1.634-.68l-.291-.544c-.399.371-.798.589-1.271.589-.763 0-1.271-.544-1.271-1.903s.509-1.903 1.199-1.903c.472 0 .872.217 1.271.589l.291-.544c-.371-.406-1.017-.678-1.635-.678zM75.096 24.118h-4.068v.635h1.526v4.078h1.018v-4.078h1.525v-.635h-.001zM78.437 24.118l-1.67 3.534h-.073v-3.534h-1.017v4.713h1.307l1.67-3.534h.073v3.534h1.017v-4.713h-1.308zM80.362 28.875a.983.983 0 0 0 .153.045c.094.028.203.046.319.046.726 0 1.148-.454 1.198-1.677l.109-2.537h1.526v4.078h1.017v-4.713h-3.486l-.146 3.172c-.036.816-.218 1.042-.472 1.042h-.217v.544h-.001zM89.514 23.936c-1.105 0-1.976.78-2.092 2.175h-.705v-1.994H85.7v4.713h1.017v-2.085h.698c.094 1.46.959 2.266 2.099 2.266 1.198 0 2.107-.906 2.107-2.537s-.908-2.538-2.107-2.538zm0 4.486c-.509 0-1.018-.544-1.018-1.948s.509-1.948 1.018-1.948 1.017.544 1.017 1.948-.508 1.948-1.017 1.948z" style="fill:var(--color1, #ddd)"/></symbol><symbol id="icon-Ellipse" viewBox="0 0 32 32"><path fill="#686868" d="M32 16c0 8.837-7.163 16-16 16S0 24.837 0 16 7.163 0 16 0s16 7.163 16 16z" style="fill:var(--color3, #686868)"/></symbol><symbol id="icon-clock" viewBox="0 0 32 32"><path fill="none" stroke="#fff" stroke-linecap="round" stroke-linejoin="round" stroke-width="1.6" d="M16.002 29.333c7.364 0 13.333-5.97 13.333-13.333S23.366 2.667 16.002 2.667 2.669 8.637 2.669 16s5.97 13.333 13.333 13.333z" style="stroke:var(--color2, #fff)"/><path fill="none" stroke="#fff" stroke-linecap="round" stroke-linejoin="round" stroke-width="1.6" d="M16 8v8l5.333 2.667" style="stroke:var(--color2, #fff)"/></symbol><symbol id="icon-google-icon" viewBox="0 0 32 32"><path fill="#ffc107" d="M29.071 13.389h-1.074v-.055h-12v5.333h7.535C22.433 21.772 19.479 24 15.997 24a8 8 0 0 1 0-16c2.039 0 3.895.769 5.307 2.026l3.771-3.771a13.274 13.274 0 0 0-9.079-3.588C8.633 2.667 2.663 8.637 2.663 16s5.97 13.333 13.333 13.333S29.329 23.363 29.329 16c0-.894-.092-1.767-.259-2.611z" style="fill:var(--color4, #ffc107)"/><path fill="#ff3d00" d="m4.204 9.794 4.381 3.213A7.996 7.996 0 0 1 16 8c2.039 0 3.895.769 5.307 2.026l3.771-3.771a13.274 13.274 0 0 0-9.079-3.588c-5.121 0-9.563 2.891-11.796 7.127z" style="fill:var(--color5, #ff3d00)"/><path fill="#4caf50" d="M16.002 29.333c3.444 0 6.573-1.318 8.939-3.461l-4.127-3.492A7.944 7.944 0 0 1 16.001 24c-3.468 0-6.413-2.211-7.522-5.297l-4.348 3.35c2.207 4.318 6.688 7.281 11.87 7.281z" style="fill:var(--color6, #4caf50)"/><path fill="#1976d2" d="M29.074 13.389H28v-.055H16v5.333h7.535a8.022 8.022 0 0 1-2.725 3.714l.002-.001 4.127 3.492c-.292.265 4.394-3.205 4.394-9.871 0-.894-.092-1.767-.259-2.611z" style="fill:var(--color7, #1976d2)"/></symbol><symbol id="icon-mainLogo" viewBox="0 0 66 32"><path fill="#fefefe" d="M33.19 11.618c2.191-3.359 3.318-5.208 5.335-8.301-.108-.258-.15-.393-.221-.563-1.746 2.677-5.336 8.304-5.336 8.304.108.258.133.349.222.561z" style="fill:var(--color8, #fefefe)"/><path fill="#fefefe" d="M40.904 18.938c-2.203-1.012-3.88-1.802-6.173-2.855a165.815 165.815 0 0 0-3.364-4.027c.478-.74.91-1.417 1.236-1.926.081.205.162.408.241.602 2.151-3.298 3.42-5.365 5.334-8.301-.26-.639-.619-1.605-.955-2.431-1.874 2.874-3.593 5.631-5.335 8.301.056.138.129.325.213.541-.55.854-.984 1.537-1.495 2.331l-.161-.186c-.29.447-.572.891-.952 1.478l.162.189c-.268.422-.546.832-.845 1.312-.254.061-.405.109-.692.178.06.229.091.352.166.601.26.311.481.58.751.903.446-.697.926-1.415 1.376-2.109a176.028 176.028 0 0 1 2.978 3.574c2.381 1.125 4.763 2.25 7.144 3.272.287-.205.489-.336.763-.532-.165-.385-.233-.539-.393-.915zm-.47.775a.267.267 0 0 1-.403-.035c-.083-.127-.073-.335.08-.427.059-.035.189-.093.327.04a.292.292 0 0 1-.004.422zM27.014.881 26.864 0l-1.461.36-.337 2.266v7.381l-.375 3.694.375 6.684h1.948l-.262-7.552.749-7.557L27.014.88zM0 30.76v-1.534l1.195-.344v-2.967h2.094v2.359l4.098-1.183v-1.175h2.094v2.11l-3.233.934 1.892 1.673h1.389v1.286H6.898l-2.639-2.392-.969.284v2.108H1.196v-1.5l-1.195.341zM10.086 30.734v-1.346l1.195-.214v-3.26h8.333v3.104l-6.239 1.123v1.775h-2.094v-1.397l-1.195.214zm3.288-1.938 4.145-.745v-.918h-4.145v1.664zM20.092 27.132v-1.218h9.536v2.213l-2.094-.31v-.686h-4.145v1.175h3.408v1.218h-3.408v1.175h4.145v-.686l2.094-.31v2.213h-8.333v-4.785h-1.203zM31.067 31.917v-6.242l5.092 1.602 5.084-1.602v6.242h-2.775v-1.218h.683v-2.933l-1.95.592v3.559h-2.094v-3.559l-1.948-.592v2.933h.681v1.218h-2.775zM42.044 27.132v-1.218h3.288v6.003h-2.093v-4.785h-1.195zM46.133 27.132v-1.218h3.288v2.375h4.137v-2.375h2.094v6.003h-2.094v-2.41h-4.137v2.41h-2.093v-4.785h-1.195zM56.452 28.583v-1.339l1.202.216v-1.544h2.094v1.929l6.239 1.123v2.95h-8.333v-3.121l-1.202-.214zm3.296 2.117h4.145v-.762l-4.145-.745v1.508z" style="fill:var(--color8, #fefefe)"/></symbol><symbol id="icon-instagram-footer" viewBox="0 0 32 32"><path fill="#fff" d="M27.929 11.073a8.701 8.701 0 0 0-.559-2.955 6.13 6.13 0 0 0-3.511-3.511 8.8 8.8 0 0 0-2.915-.56c-1.283-.057-1.689-.073-4.945-.073s-3.673 0-4.947.073a8.814 8.814 0 0 0-2.913.56 6.149 6.149 0 0 0-3.511 3.511 8.737 8.737 0 0 0-.559 2.913c-.057 1.284-.075 1.691-.075 4.947s0 3.672.075 4.947a8.79 8.79 0 0 0 .559 2.916A6.138 6.138 0 0 0 8.14 27.35a8.79 8.79 0 0 0 2.913.6c1.284.057 1.691.075 4.947.075s3.673 0 4.947-.075a8.804 8.804 0 0 0 2.915-.559c.797-.309 1.521-.781 2.125-1.386s1.076-1.328 1.386-2.125a8.77 8.77 0 0 0 .559-2.916c.057-1.283.075-1.689.075-4.947-.003-3.256-.003-3.669-.077-4.945zM15.992 22.136c-3.405 0-6.164-2.759-6.164-6.164a6.163 6.163 0 1 1 12.328 0 6.164 6.164 0 0 1-6.164 6.164zm6.409-11.119a1.439 1.439 0 0 1-1.437-1.437 1.439 1.439 0 0 1 .886-1.327 1.439 1.439 0 0 1 1.986 1.327c0 .795-.643 1.437-1.436 1.437z" style="fill:var(--color2, #fff)"/><path fill="#fff" d="M15.992 19.976a4.004 4.004 0 1 0 0-8.009 4.004 4.004 0 0 0 0 8.009z" style="fill:var(--color2, #fff)"/></symbol><symbol id="icon-instagram-header" viewBox="0 0 32 32"><path fill="none" stroke="#fff" stroke-linecap="round" stroke-linejoin="round" stroke-width="1.714" d="M16 21.333a5.334 5.334 0 1 0 0-10.668 5.334 5.334 0 0 0 0 10.668z" style="stroke:var(--color2, #fff)"/><path fill="none" stroke="#fff" stroke-width="1.714" d="M4 21.333V10.666a6.67 6.67 0 0 1 6.667-6.667h10.667a6.67 6.67 0 0 1 6.667 6.667v10.667A6.67 6.67 0 0 1 21.334 28H10.667A6.67 6.67 0 0 1 4 21.333z" style="stroke:var(--color2, #fff)"/><path fill="none" stroke="#fff" stroke-linecap="round" stroke-linejoin="round" stroke-width="1.714" d="m23.333 8.68.013-.015" style="stroke:var(--color2, #fff)"/></symbol><symbol id="icon-LogoK" viewBox="0 0 29 32"><path fill="#ebe8e8" d="M14.491 18.035c3.714-5.22 5.624-8.093 9.044-12.9-.183-.4-.254-.611-.375-.876-2.96 4.16-9.045 12.904-9.045 12.904.183.402.225.541.376.872z" style="fill:var(--color9, #ebe8e8)"/><path fill="#ebe8e8" d="M27.566 29.412c-3.733-1.573-6.578-2.8-10.464-4.437a261.96 261.96 0 0 0-5.702-6.258c.809-1.151 1.542-2.202 2.095-2.992.137.318.274.634.408.937 3.646-5.125 5.796-8.337 9.042-12.901-.44-.993-1.049-2.494-1.619-3.778-3.177 4.466-6.091 8.752-9.042 12.901.095.215.219.505.362.841-.933 1.327-1.668 2.388-2.535 3.623l-.273-.289c-.491.694-.968 1.385-1.614 2.297l.275.294c-.455.656-.926 1.293-1.433 2.039-.43.094-.686.17-1.174.276.102.356.154.547.282.934.441.483.815.901 1.274 1.404.756-1.083 1.569-2.198 2.332-3.278a283.671 283.671 0 0 1 5.049 5.554c4.036 1.749 8.072 3.497 12.109 5.084.487-.318.828-.523 1.294-.827-.278-.6-.393-.84-.664-1.423zm-.795 1.204c-.219.193-.55.131-.683-.055-.141-.197-.125-.521.135-.663.1-.054.32-.145.555.062a.43.43 0 0 1-.006.657zM4.021 1.35 3.767-.019 1.29.541.718 4.062v11.47l-.635 5.74.635 10.387H4.02l-.445-11.735 1.27-11.745-.825-6.831z" style="fill:var(--color9, #ebe8e8)"/></symbol><symbol id="icon-logotype" viewBox="0 0 63 32"><path fill="#dfdfdf" d="M31.666 9.26c1.964-2.669 2.975-4.138 4.783-6.595-.097-.205-.134-.312-.198-.448-1.566 2.127-4.784 6.597-4.784 6.597.097.205.119.277.199.446z" style="fill:var(--color10, #dfdfdf)"/><path fill="#dfdfdf" d="M38.582 15.076c-1.975-.804-3.479-1.432-5.534-2.269a135.936 135.936 0 0 0-3.016-3.2c.428-.588.815-1.126 1.108-1.53.072.163.145.324.216.479 1.928-2.62 3.066-4.263 4.783-6.595-.233-.508-.555-1.275-.856-1.932-1.68 2.283-3.221 4.474-4.783 6.595.05.11.116.258.191.43-.494.678-.882 1.221-1.341 1.852l-.144-.148c-.26.355-.512.708-.854 1.174l.145.15c-.24.335-.49.661-.758 1.042-.227.048-.363.087-.621.141.054.182.082.279.149.477.233.247.431.461.674.718.4-.554.83-1.124 1.234-1.676.92.958 1.826 1.913 2.67 2.839 2.135.894 4.27 1.788 6.405 2.599.258-.163.438-.267.684-.423l-.352-.727zm-.421.615c-.116.099-.291.067-.361-.028-.075-.101-.066-.266.071-.339a.247.247 0 0 1 .294.032.214.214 0 0 1-.003.335zM26.127.73l-.135-.7-1.31.286-.302 1.8v5.865l-.336 2.935.336 5.311h1.747l-.235-6 .671-6.004-.436-3.492zM1.908 24.45v-1.219l1.071-.273v-2.357h1.877v1.874l3.674-.94v-.933h1.877v1.677l-2.898.742 1.696 1.329h1.245v1.022H8.091l-2.366-1.901-.869.226v1.675H2.979V24.18l-1.072.271zM10.949 24.429V23.36l1.071-.17V20.6h7.471v2.466l-5.593.893v1.41h-1.877v-1.11l-1.071.17zm2.949-1.539 3.717-.592v-.73h-3.717v1.322zM19.922 21.567V20.6h8.549v1.758l-1.877-.246v-.545h-3.717v.933h3.055v.968h-3.055v.933h3.717v-.545l1.877-.246v1.758H21v-3.802h-1.079zM29.762 25.37v-4.959l4.565 1.273 4.558-1.273v4.959h-2.488v-.968h.612v-2.33l-1.748.47v2.828h-1.877v-2.828l-1.746-.47v2.33h.611v.968h-2.488zM39.602 21.567V20.6h2.948v4.769h-1.877v-3.802h-1.071zM43.269 21.567V20.6h2.948v1.887h3.709V20.6h1.877v4.769h-1.877v-1.915h-3.709v1.915H44.34v-3.802h-1.071zM52.52 22.72v-1.064l1.078.172v-1.227h1.877v1.532l5.593.893v2.344h-7.471v-2.48l-1.078-.17zm2.955 1.682h3.717v-.606l-3.716-.592v1.198zM8.136 29.916l-.713-1.761h-.886v2.129h.605v-1.556h.043l.631 1.556h.687l.627-1.556h.043v1.556h.605v-2.129h-.886l-.713 1.761h-.043zM10.988 28.196h-.605v2.088h.605v-2.088zm.021-.553a.312.312 0 0 0-.324-.307c-.194 0-.324.143-.324.307s.13.307.324.307.324-.143.324-.307zM12.802 28.073c-.778 0-1.318.409-1.318 1.146s.54 1.146 1.361 1.146c.367 0 .752-.122.972-.307l-.173-.246c-.238.168-.475.266-.756.266-.454 0-.756-.246-.756-.86s.303-.86.713-.86c.281 0 .518.098.756.266l.173-.245c-.22-.183-.605-.306-.972-.306zM16.345 30.284l.086.614h.497v-.901h-.367v-1.842h-.605v1.842h-1.08v-1.842h-.605v2.129h2.074zM18.678 30.08c-.397 0-.674-.18-.743-.635h1.845v-.287c0-.675-.562-1.085-1.253-1.085-.735 0-1.253.409-1.253 1.146s.54 1.146 1.361 1.146c.367 0 .752-.123.972-.307l-.173-.246c-.237.168-.475.266-.756.266zm-.151-1.741c.303 0 .605.246.605.819h-1.21c.013-.59.276-.819.605-.819zM22.998 28.073c-.778 0-1.318.409-1.318 1.146s.54 1.146 1.361 1.146c.367 0 .752-.122.972-.307l-.173-.246c-.238.168-.475.266-.756.266-.454 0-.756-.246-.756-.86s.303-.86.713-.86c.281 0 .518.098.756.266l.173-.245c-.221-.183-.605-.306-.972-.306zM26.107 28.155l-.994 1.597h-.043v-1.597h-.605v2.129h.778l.994-1.597h.043v1.597h.605v-2.129h-.778zM27.253 30.305c.03.008.061.016.091.02a.85.85 0 0 0 .19.021c.432 0 .683-.205.713-.758l.065-1.146h.908v1.843h.605v-2.129h-2.074l-.086 1.433c-.021.369-.13.471-.281.471h-.13v.246zM32.07 28.155l-.994 1.597h-.043v-1.597h-.605v2.129h.778l.994-1.597h.043v1.597h.605v-2.129h-.778zM37.126 28.155h-2.42v.287h.907v1.842h.605v-1.842h.907v-.287zM37.967 29.609c0-.258.164-.389.497-.389h.605v.778h-.605c-.332 0-.497-.131-.497-.389zm.498-.676c-.782 0-1.145.221-1.145.676s.363.675 1.145.675h1.21v-1.351c0-.512-.41-.86-1.145-.86-.272 0-.657.086-.907.246l.151.246c.194-.127.453-.205.713-.205.346 0 .583.18.583.573h-.605zM42.98 28.073c-.778 0-1.318.409-1.318 1.146s.54 1.146 1.361 1.146c.367 0 .752-.122.972-.307l-.173-.246c-.238.168-.475.266-.756.266-.454 0-.756-.246-.756-.86s.303-.86.713-.86c.281 0 .518.098.756.266l.173-.245c-.221-.183-.605-.306-.972-.306zM46.608 28.155h-2.42v.287h.907v1.842h.605v-1.842h.908v-.287zM48.596 28.155l-.994 1.597h-.043v-1.597h-.605v2.129h.778l.993-1.597h.043v1.597h.605v-2.129h-.778zM49.741 30.304c.03.008.061.016.091.02a.85.85 0 0 0 .19.021c.432 0 .683-.205.713-.758l.065-1.146h.908v1.842h.605v-2.129h-2.074l-.086 1.433c-.021.369-.13.471-.281.471h-.13v.245zM55.184 28.073c-.657 0-1.175.352-1.245.983h-.419v-.901h-.605v2.129h.605v-.942h.415c.056.66.57 1.024 1.249 1.024.713 0 1.253-.409 1.253-1.146s-.54-1.147-1.253-1.147zm0 2.027c-.303 0-.605-.246-.605-.881s.303-.88.605-.88.605.246.605.88c0 .635-.302.881-.605.881z" style="fill:var(--color10, #dfdfdf)"/></symbol><symbol id="icon-mail" viewBox="0 0 32 32"><path fill="none" stroke="#fff" stroke-linecap="round" stroke-linejoin="round" stroke-width="1.6" d="M5.335 5.334h21.333c1.467 0 2.667 1.2 2.667 2.667v16c0 1.467-1.2 2.667-2.667 2.667H5.335a2.675 2.675 0 0 1-2.667-2.667v-16c0-1.467 1.2-2.667 2.667-2.667z" style="stroke:var(--color2, #fff)"/><path fill="none" stroke="#fff" stroke-linecap="round" stroke-linejoin="round" stroke-width="1.6" d="m29.335 8-13.333 9.333L2.669 8" style="stroke:var(--color2, #fff)"/></symbol><symbol id="icon-map" viewBox="0 0 32 32"><path fill="none" stroke="#fff" stroke-linecap="round" stroke-linejoin="round" stroke-width="1.333" d="M28 13.333c0 9.333-12 17.333-12 17.333s-12-8-12-17.333a12.003 12.003 0 0 1 12-12 12.003 12.003 0 0 1 12 12z" style="stroke:var(--color2, #fff)"/><path fill="none" stroke="#fff" stroke-linecap="round" stroke-linejoin="round" stroke-width="1.333" d="M16 17.333a4 4 0 1 0 0-8 4 4 0 0 0 0 8z" style="stroke:var(--color2, #fff)"/></symbol><symbol id="icon-menu-burger" viewBox="0 0 32 32"><path fill="none" stroke="#fff" stroke-linecap="round" stroke-linejoin="round" stroke-width="1.524" d="M4 8h24M4 16h24M4 24h24" style="stroke:var(--color2, #fff)"/></symbol><symbol id="icon-phone" viewBox="0 0 32 32"><path fill="none" stroke="#fff" stroke-linecap="round" stroke-linejoin="round" stroke-width="1.6" d="M29.336 22.56v4a2.654 2.654 0 0 1-.864 1.976 2.675 2.675 0 0 1-2.042.691 26.398 26.398 0 0 1-11.507-4.093 25.999 25.999 0 0 1-8-8A26.382 26.382 0 0 1 2.83 5.574a2.657 2.657 0 0 1 .687-2.038 2.664 2.664 0 0 1 1.967-.868h4a2.67 2.67 0 0 1 2.667 2.294 17.16 17.16 0 0 0 .933 3.747 2.675 2.675 0 0 1-.6 2.814l-1.693 1.693a21.333 21.333 0 0 0 8 8l1.693-1.693c.363-.358.82-.605 1.319-.712s1.017-.068 1.494.112a17.16 17.16 0 0 0 3.747.933 2.665 2.665 0 0 1 2.293 2.707z" style="stroke:var(--color2, #fff)"/></symbol><symbol id="icon-Star" viewBox="0 0 36 32"><path fill="#ffe249" stroke="#a18753" stroke-width="1.454" d="m18.182 2.269 3.56 10.52h11.417l-9.237 6.443.175.517 3.373 9.966-9.289-6.479-9.289 6.479 3.548-10.483-9.237-6.443h11.418l3.56-10.52z" style="fill:var(--color11, #ffe249);stroke:var(--color12, #a18753)"/></symbol><symbol id="icon-instagram" viewBox="0 0 24 28"><path d="M16 14c0-2.203-1.797-4-4-4s-4 1.797-4 4 1.797 4 4 4 4-1.797 4-4zm2.156 0c0 3.406-2.75 6.156-6.156 6.156S5.844 17.406 5.844 14 8.594 7.844 12 7.844s6.156 2.75 6.156 6.156zm1.688-6.406c0 .797-.641 1.437-1.437 1.437S16.97 8.39 16.97 7.594s.641-1.437 1.437-1.437 1.437.641 1.437 1.437zM12 4.156c-1.75 0-5.5-.141-7.078.484-.547.219-.953.484-1.375.906s-.688.828-.906 1.375c-.625 1.578-.484 5.328-.484 7.078s-.141 5.5.484 7.078c.219.547.484.953.906 1.375s.828.688 1.375.906c1.578.625 5.328.484 7.078.484s5.5.141 7.078-.484c.547-.219.953-.484 1.375-.906s.688-.828.906-1.375c.625-1.578.484-5.328.484-7.078s.141-5.5-.484-7.078c-.219-.547-.484-.953-.906-1.375s-.828-.688-1.375-.906C17.5 4.015 13.75 4.156 12 4.156zM24 14c0 1.656.016 3.297-.078 4.953-.094 1.922-.531 3.625-1.937 5.031s-3.109 1.844-5.031 1.937c-1.656.094-3.297.078-4.953.078s-3.297.016-4.953-.078c-1.922-.094-3.625-.531-5.031-1.937S.173 20.875.08 18.953C-.014 17.297.002 15.656.002 14s-.016-3.297.078-4.953c.094-1.922.531-3.625 1.937-5.031s3.109-1.844 5.031-1.937c1.656-.094 3.297-.078 4.953-.078s3.297-.016 4.953.078c1.922.094 3.625.531 5.031 1.937s1.844 3.109 1.937 5.031C24.016 10.703 24 12.344 24 14z"/></symbol><symbol id="icon-Vector-3" viewBox="0 0 18 32"><path d="M18.658 2.155l6.844-2.15-0.464 31.967-19.887-0.168-5.121-0.187 18.628-29.462z"></path></symbol></defs></svg>