<svg width="28" height="28" viewBox="0 0 28 28" fill="none" xmlns="http://www.w3.org/2000/svg">
<path d="M14.0002 18.6663C15.2378 18.6663 16.4248 18.1747 17.3 17.2995C18.1752 16.4243 18.6668 15.2374 18.6668 13.9997C18.6668 12.762 18.1752 11.575 17.3 10.6998C16.4248 9.82467 15.2378 9.33301 14.0002 9.33301C12.7625 9.33301 11.5755 9.82467 10.7003 10.6998C9.82516 11.575 9.3335 12.762 9.3335 13.9997C9.3335 15.2374 9.82516 16.4243 10.7003 17.2995C11.5755 18.1747 12.7625 18.6663 14.0002 18.6663Z" stroke="white" stroke-width="1.5" stroke-linecap="round" stroke-linejoin="round"/>
<path d="M3.5 18.6667V9.33333C3.5 7.78624 4.11458 6.30251 5.20854 5.20854C6.30251 4.11458 7.78624 3.5 9.33333 3.5H18.6667C20.2138 3.5 21.6975 4.11458 22.7915 5.20854C23.8854 6.30251 24.5 7.78624 24.5 9.33333V18.6667C24.5 20.2138 23.8854 21.6975 22.7915 22.7915C21.6975 23.8854 20.2138 24.5 18.6667 24.5H9.33333C7.78624 24.5 6.30251 23.8854 5.20854 22.7915C4.11458 21.6975 3.5 20.2138 3.5 18.6667Z" stroke="white" stroke-width="1.5"/>
<path d="M20.4165 7.59486L20.4282 7.58203" stroke="white" stroke-width="1.5" stroke-linecap="round" stroke-linejoin="round"/>
</svg>
