<svg width="44" height="44" viewBox="0 0 44 44" fill="none" xmlns="http://www.w3.org/2000/svg">
<path d="M38.403 15.2258C38.3845 13.8372 38.1245 12.4625 37.6348 11.1631C37.2101 10.067 36.5615 9.07162 35.7303 8.24044C34.8991 7.40927 33.9037 6.76061 32.8076 6.33592C31.5249 5.85441 30.1698 5.59405 28.8 5.56592C27.0363 5.48709 26.4771 5.46509 22.0001 5.46509C17.5231 5.46509 16.9493 5.46509 15.1985 5.56592C13.8293 5.59425 12.4748 5.85461 11.1926 6.33592C10.0964 6.76032 9.10083 7.40887 8.26962 8.24008C7.43841 9.07129 6.78986 10.0669 6.36546 11.1631C5.88299 12.4448 5.62319 13.7996 5.5973 15.1689C5.51846 16.9344 5.49463 17.4936 5.49463 21.9706C5.49463 26.4476 5.49463 27.0196 5.5973 28.7723C5.6248 30.1436 5.8833 31.4966 6.36546 32.7818C6.79057 33.8776 7.43961 34.8728 8.2711 35.7037C9.10259 36.5345 10.0982 37.1828 11.1945 37.6071C12.4731 38.108 13.8278 38.387 15.2003 38.4321C16.9658 38.5109 17.525 38.5348 22.002 38.5348C26.479 38.5348 27.0528 38.5348 28.8036 38.4321C30.1734 38.4051 31.5286 38.1454 32.8113 37.6639C33.9071 37.2387 34.9022 36.5899 35.7333 35.7588C36.5645 34.9277 37.2133 33.9325 37.6385 32.8368C38.1206 31.5534 38.3791 30.2004 38.4066 28.8273C38.4855 27.0636 38.5093 26.5044 38.5093 22.0256C38.5056 17.5486 38.5056 16.9803 38.403 15.2258ZM21.9891 30.4369C17.3068 30.4369 13.5136 26.6438 13.5136 21.9614C13.5136 17.2791 17.3068 13.4859 21.9891 13.4859C24.237 13.4859 26.3927 14.3789 27.9822 15.9683C29.5717 17.5578 30.4646 19.7136 30.4646 21.9614C30.4646 24.2093 29.5717 26.365 27.9822 27.9545C26.3927 29.544 24.237 30.4369 21.9891 30.4369ZM30.802 15.1488C30.5424 15.149 30.2853 15.098 30.0454 14.9988C29.8055 14.8996 29.5875 14.754 29.4039 14.5704C29.2204 14.3869 29.0748 14.1689 28.9756 13.929C28.8763 13.6891 28.8254 13.432 28.8256 13.1724C28.8256 12.913 28.8767 12.6561 28.976 12.4165C29.0753 12.1768 29.2208 11.959 29.4042 11.7756C29.5877 11.5922 29.8054 11.4466 30.0451 11.3474C30.2848 11.2481 30.5416 11.197 30.8011 11.197C31.0605 11.197 31.3173 11.2481 31.557 11.3474C31.7967 11.4466 32.0144 11.5922 32.1979 11.7756C32.3813 11.959 32.5268 12.1768 32.6261 12.4165C32.7254 12.6561 32.7765 12.913 32.7765 13.1724C32.7765 14.2651 31.8928 15.1488 30.802 15.1488Z" fill="white"/>
<path d="M21.9889 27.4671C25.0295 27.4671 27.4944 25.0022 27.4944 21.9616C27.4944 18.921 25.0295 16.4561 21.9889 16.4561C18.9483 16.4561 16.4834 18.921 16.4834 21.9616C16.4834 25.0022 18.9483 27.4671 21.9889 27.4671Z" fill="white"/>
</svg>
