<svg width="35" height="39" viewBox="0 0 35 39" fill="none" xmlns="http://www.w3.org/2000/svg">
<path d="M17.6603 21.9807C22.1862 15.6186 24.515 12.1178 28.6828 6.25865C28.4599 5.77067 28.3728 5.5143 28.2257 5.19141C24.6185 10.262 17.2021 20.9183 17.2021 20.9183C17.4255 21.4078 17.4765 21.5782 17.6603 21.9807Z" fill="#EBE8E8"/>
<path d="M33.5961 35.8455C29.0459 33.9281 25.5794 32.4326 20.8435 30.4375C18.6133 27.899 16.3167 25.396 13.8937 22.8105C14.8798 21.4082 15.7733 20.1269 16.4464 19.1635C16.6128 19.551 16.7807 19.9365 16.9437 20.3051C21.3869 14.0589 24.0079 10.144 27.9642 4.58249C27.4278 3.37201 26.6854 1.54343 25.9915 -0.0224609C22.1194 5.42054 18.5682 10.6436 14.971 15.7001C15.0874 15.9623 15.2379 16.3153 15.4118 16.7251C14.2746 18.3425 13.3791 19.6355 12.3222 21.1402C12.2113 21.0227 12.1008 20.9057 11.9889 20.7877C11.3906 21.6335 10.8086 22.4755 10.0221 23.5874C10.1335 23.7068 10.245 23.8263 10.3569 23.9457C9.8027 24.7449 9.22817 25.5218 8.61055 26.4307C8.08654 26.5453 7.77501 26.6376 7.18018 26.7677C7.30499 27.2013 7.36838 27.4339 7.52341 27.9063C8.06029 28.4953 8.51645 29.0042 9.07562 29.6179C9.99735 28.2982 10.9884 26.9386 11.9181 25.6223C14.0384 27.9053 16.127 30.1821 18.0715 32.3913C22.9906 34.5224 27.9098 36.6535 32.8289 38.5879C33.4223 38.2 33.8383 37.9504 34.4059 37.5799C34.0666 36.8492 33.9269 36.5559 33.5961 35.8455ZM32.6268 37.3129C32.3604 37.5479 31.9562 37.4726 31.7938 37.2454C31.6219 37.005 31.6417 36.6103 31.9582 36.4369C32.0795 36.3709 32.3485 36.2602 32.6343 36.5127C32.8774 36.7273 32.8809 37.0881 32.6268 37.3129Z" fill="#EBE8E8"/>
<path d="M4.90035 1.64589L4.5908 -0.0224609L1.57255 0.660221L0.875683 4.9515V18.931L0.102051 25.9272L0.875683 38.5869H4.90035L4.35851 24.2846L5.90627 9.97063L4.90035 1.64589Z" fill="#EBE8E8"/>
</svg>
