<svg width="294" height="149" viewBox="0 0 294 149" fill="none" xmlns="http://www.w3.org/2000/svg">
<path d="M147.444 43.1155C156.589 30.6893 161.295 23.8493 169.717 12.4057C169.267 11.4516 169.091 10.9508 168.793 10.321C161.503 20.2263 146.517 41.0403 146.517 41.0403C146.969 41.9963 147.072 42.3302 147.444 43.1155Z" fill="#DFDFDF"/>
<path d="M179.648 70.1971C170.453 66.4527 163.449 63.5316 153.88 59.6336C149.372 54.6753 144.733 49.7852 139.837 44.7358C141.83 41.9968 143.634 39.4949 144.995 37.6113C145.331 38.3682 145.669 39.1212 146 39.8401C154.979 27.6396 160.275 19.9916 168.269 9.1303C167.184 6.76494 165.685 3.1932 164.282 0.135498C156.458 10.7673 149.282 20.9685 142.012 30.8453C142.247 31.3574 142.553 32.0479 142.903 32.8484C140.605 36.0066 138.796 38.5332 136.66 41.4714C136.436 41.2419 136.212 41.0123 135.988 40.7828C134.779 42.435 133.602 44.0795 132.013 46.2514C132.239 46.4847 132.463 46.718 132.689 46.9513C131.57 48.5124 130.409 50.0299 129.16 51.8053C128.101 52.0292 127.471 52.2094 126.27 52.4636C126.522 53.3095 126.65 53.7648 126.965 54.6866C128.049 55.838 128.972 56.832 130.101 58.0289C131.965 55.4511 133.966 52.7955 135.846 50.2253C140.131 54.6848 144.35 59.1309 148.279 63.4463C158.219 67.6079 168.161 71.7715 178.101 75.55C179.3 74.7931 180.14 74.3056 181.287 73.5811C180.599 72.1584 180.317 71.5856 179.648 70.1971ZM177.688 73.0632C177.15 73.5222 176.333 73.3743 176.005 72.9323C175.657 72.4638 175.699 71.6918 176.337 71.3542C176.582 71.2252 177.126 71.0089 177.704 71.5021C178.195 71.9194 178.203 72.625 177.688 73.0632Z" fill="#DFDFDF"/>
<path d="M121.656 3.39695L121.029 0.138184L114.93 1.47166L113.523 9.85378V37.1607L111.958 50.8255L113.523 75.5546H121.656L120.561 47.616L123.687 19.6585L121.656 3.39695Z" fill="#DFDFDF"/>
<path d="M8.88379 113.844V108.17L13.8717 106.897V95.9204H22.6126V104.646L39.718 100.268V95.9223H48.4589V103.73L34.9643 107.184L42.8625 113.371H48.6591V118.129H37.6764L26.6598 109.278L22.6146 110.329V118.129H13.8737V112.58L8.88379 113.844Z" fill="#DFDFDF"/>
<path d="M50.9834 113.749V108.77L55.9713 107.979V95.9187H90.7567V107.402L64.7122 111.558V118.125H55.9713V112.956L50.9834 113.749ZM64.7122 106.581L82.0178 103.823V100.426H64.7122V106.581Z" fill="#DFDFDF"/>
<path d="M92.7622 100.423V95.9185H132.57V104.105L123.829 102.96V100.423H106.523V104.769H120.75V109.274H106.523V113.62H123.829V111.084L132.57 109.938V118.125H97.7842V100.423H92.7622Z" fill="#DFDFDF"/>
<path d="M138.58 118.127V95.0347L159.838 100.962L181.063 95.0347V118.127H169.48V113.622H172.332V102.772L164.192 104.961V118.127H155.451V104.961L147.32 102.772V113.622H150.165V118.127H138.58Z" fill="#DFDFDF"/>
<path d="M184.397 100.423V95.9185H198.124V118.125H189.385V100.423H184.397Z" fill="#DFDFDF"/>
<path d="M201.471 100.423V95.9185H215.198V104.707H232.47V95.9185H241.21V118.125H232.47V109.21H215.198V118.125H206.459V100.423H201.471Z" fill="#DFDFDF"/>
<path d="M244.546 105.79V100.835L249.566 101.634V95.9204H258.307V103.056L284.351 107.212V118.127H249.566V106.581L244.546 105.79ZM258.307 113.622H275.612V110.801L258.307 108.043V113.622Z" fill="#DFDFDF"/>
<path d="M37.8848 139.296L34.5662 131.098H30.4409V141.013H33.2571V133.767H33.4573L36.3936 141.013H39.5921L42.5104 133.767H42.7106V141.013H45.5268V131.098H41.4035L38.0829 139.296H37.8848Z" fill="#DFDFDF"/>
<path d="M51.1624 131.288H48.3462V141.011H51.1624V131.288ZM51.2625 128.714C51.2625 127.951 50.64 127.283 49.7533 127.283C48.8486 127.283 48.2441 127.951 48.2441 128.714C48.2441 129.476 48.8486 130.144 49.7533 130.144C50.658 130.144 51.2625 129.476 51.2625 128.714Z" fill="#DFDFDF"/>
<path d="M59.6114 130.715C55.9905 130.715 53.4766 132.621 53.4766 136.053C53.4766 139.484 55.9925 141.39 59.8135 141.39C61.5229 141.39 63.3143 140.82 64.3391 139.96L63.5345 138.816C62.4276 139.598 61.3227 140.055 60.0137 140.055C57.902 140.055 56.4929 138.911 56.4929 136.051C56.4929 133.19 57.902 132.047 59.8135 132.047C61.1206 132.047 62.2274 132.504 63.3343 133.285L64.1389 132.142C63.1141 131.288 61.3227 130.715 59.6114 130.715Z" fill="#DFDFDF"/>
<path d="M76.1077 141.01L76.5101 143.871H78.8239V139.675H77.1145V131.096H74.2983V139.675H69.2684V131.096H66.4521V141.01H76.1077Z" fill="#DFDFDF"/>
<path d="M86.9703 140.058C85.1208 140.058 83.8318 139.22 83.5096 137.103H92.1003V135.768C92.1003 132.623 89.4843 130.717 86.2657 130.717C82.845 130.717 80.4312 132.623 80.4312 136.054C80.4312 139.486 82.9471 141.392 86.7681 141.392C88.4775 141.392 90.2689 140.821 91.2937 139.962L90.4891 138.818C89.3842 139.601 88.2773 140.058 86.9703 140.058ZM86.2657 131.955C87.6748 131.955 89.082 133.099 89.082 135.768H83.4495C83.5096 133.023 84.7365 131.955 86.2657 131.955Z" fill="#DFDFDF"/>
<path d="M107.083 130.715C103.462 130.715 100.948 132.621 100.948 136.053C100.948 139.484 103.464 141.39 107.285 141.39C108.994 141.39 110.785 140.82 111.81 139.96L111.006 138.816C109.899 139.598 108.794 140.055 107.485 140.055C105.373 140.055 103.964 138.911 103.964 136.051C103.964 133.19 105.373 132.047 107.285 132.047C108.592 132.047 109.699 132.504 110.806 133.285L111.61 132.142C110.583 131.288 108.794 130.715 107.083 130.715Z" fill="#DFDFDF"/>
<path d="M121.562 131.098L116.935 138.534H116.735V131.098H113.918V141.013H117.539L122.165 133.577H122.367V141.013H125.183V131.098H121.562Z" fill="#DFDFDF"/>
<path d="M126.898 141.106C127.039 141.144 127.181 141.181 127.321 141.2C127.581 141.259 127.883 141.297 128.205 141.297C130.217 141.297 131.384 140.343 131.524 137.769L131.826 132.431H136.052V141.011H138.868V131.096H129.212L128.81 137.769C128.71 139.486 128.207 139.962 127.503 139.962H126.9V141.106H126.898Z" fill="#DFDFDF"/>
<path d="M149.328 131.098L144.7 138.534H144.5V131.098H141.684V141.013H145.305L149.931 133.578H150.133V141.013H152.949V131.098H149.328Z" fill="#DFDFDF"/>
<path d="M172.867 131.098H161.6V132.434H165.825V141.013H168.644V132.434H172.869V131.098H172.867Z" fill="#DFDFDF"/>
<path d="M176.786 137.866C176.786 136.665 177.551 136.055 179.1 136.055H181.916V139.678H179.1C177.553 139.676 176.786 139.067 176.786 137.866ZM179.102 134.719C175.459 134.719 173.77 135.749 173.77 137.866C173.77 139.981 175.459 141.011 179.102 141.011H184.735V134.719C184.735 132.337 182.825 130.715 179.404 130.715C178.137 130.715 176.346 131.115 175.179 131.861L175.884 133.005C176.788 132.413 177.995 132.05 179.204 132.05C180.814 132.05 181.92 132.889 181.92 134.719H179.102Z" fill="#DFDFDF"/>
<path d="M200.125 130.715C196.504 130.715 193.99 132.621 193.99 136.053C193.99 139.484 196.506 141.39 200.327 141.39C202.036 141.39 203.827 140.82 204.852 139.96L204.048 138.816C202.941 139.598 201.836 140.055 200.527 140.055C198.415 140.055 197.006 138.911 197.006 136.051C197.006 133.19 198.415 132.047 200.327 132.047C201.634 132.047 202.741 132.504 203.847 133.285L204.652 132.142C203.625 131.288 201.836 130.715 200.125 130.715Z" fill="#DFDFDF"/>
<path d="M217.02 131.098H205.753V132.434H209.978V141.013H212.796V132.434H217.022V131.098H217.02Z" fill="#DFDFDF"/>
<path d="M226.273 131.098L221.646 138.534H221.446V131.098H218.629V141.013H222.25L226.876 133.577H227.078V141.013H229.894V131.098H226.273Z" fill="#DFDFDF"/>
<path d="M231.608 141.105C231.749 141.143 231.891 141.181 232.031 141.2C232.291 141.259 232.593 141.297 232.915 141.297C234.927 141.297 236.094 140.343 236.234 137.769L236.536 132.431H240.762V141.01H243.578V131.096H233.922L233.52 137.769C233.42 139.485 232.917 139.962 232.213 139.962H231.61V141.105H231.608Z" fill="#DFDFDF"/>
<path d="M256.952 130.715C253.894 130.715 251.48 132.356 251.157 135.29H249.206V131.096H246.39V141.011H249.206V136.625H251.137C251.4 139.696 253.793 141.392 256.952 141.392C260.271 141.392 262.787 139.486 262.787 136.054C262.787 132.623 260.271 130.715 256.952 130.715ZM256.952 140.154C255.543 140.154 254.134 139.01 254.134 136.054C254.134 133.099 255.543 131.955 256.952 131.955C258.361 131.955 259.768 133.099 259.768 136.054C259.768 139.01 258.361 140.154 256.952 140.154Z" fill="#DFDFDF"/>
</svg>
