<svg aria-hidden="true" style="position:absolute;width:0;height:0;overflow:hidden" xmlns="http://www.w3.org/2000/svg"><defs><symbol id="icon-mob-main" viewBox="0 0 50 32"><path  d="M25.141 11.787c1.915-3.381 2.9-5.242 4.663-8.355-.094-.26-.131-.396-.194-.567-1.526 2.695-4.664 8.358-4.664 8.358.095.26.116.351.194.565z"/><path d="M34.053 19.061c-1.925-1.019-3.391-1.813-5.395-2.874a164.215 164.215 0 0 0-2.94-4.053c.417-.745.795-1.426 1.08-1.938.07.206.141.411.21.606 1.88-3.319 2.989-5.4 4.663-8.355-.227-.644-.541-1.615-.835-2.447-1.638 2.893-3.14 5.668-4.663 8.355.049.139.113.327.187.545-.481.859-.86 1.547-1.307 2.346l-.141-.187c-.253.449-.5.897-.832 1.488l.142.19c-.234.425-.477.838-.739 1.321-.222.061-.354.11-.605.179.053.23.08.354.145.605.227.313.42.584.657.909.39-.701.809-1.424 1.203-2.123a173.386 173.386 0 0 1 2.603 3.597c2.081 1.132 4.163 2.265 6.244 3.293.251-.206.427-.339.667-.536l-.343-.921zm-.41.78a.214.214 0 0 1-.352-.035c-.073-.128-.064-.338.07-.429.051-.035.165-.094.286.04a.326.326 0 0 1-.003.425zM21.913.887 21.782 0l-1.277.363-.295 2.28v7.429l-.328 3.718.328 6.728h1.703l-.229-7.601.655-7.606-.425-4.424zM.045 30.71v-1.544l.905-.346v-2.986h1.586v2.374l3.104-1.191v-1.182h1.586v2.124l-2.448.94 1.433 1.683h1.052v1.294H5.27l-1.999-2.408-.734.286v2.122H.951v-1.509l-.905.344zM7.684 30.684v-1.355l.905-.215v-3.281H14.9v3.124l-4.726 1.131v1.787H8.588v-1.406l-.905.216zm2.491-1.95 3.14-.75v-.924h-3.14v1.675zM15.263 27.059v-1.226h7.223v2.227l-1.586-.312v-.69h-3.14v1.182h2.581v1.226H17.76v1.182h3.14v-.69l1.586-.312v2.227h-6.312v-4.816h-.911zM23.577 31.875v-6.282l3.857 1.613 3.851-1.613v6.282h-2.102v-1.226h.517v-2.952l-1.477.596v3.582h-1.586v-3.582l-1.475-.596v2.952h.516v1.226h-2.102zM31.891 27.059v-1.226h2.491v6.042h-1.586v-4.816h-.905zM34.988 27.059v-1.226h2.491v2.391h3.134v-2.391h1.586v6.042h-1.586V29.45h-3.134v2.425h-1.586v-4.816h-.905zM42.804 28.519v-1.348l.911.217v-1.554h1.586v1.941l4.726 1.131v2.969h-6.312v-3.141l-.911-.215zm2.497 2.13h3.14v-.767l-3.14-.75v1.518z"/></symbol></defs></svg>