<svg aria-hidden="true" style="position: absolute; width: 0; height: 0; overflow: hidden;" version="1.1" xmlns="http://www.w3.org/2000/svg" xmlns:xlink="http://www.w3.org/1999/xlink">
<defs>
<symbol id="icon-clock" viewBox="0 0 32 32">
<path fill="none" stroke="#fff" style="stroke: var(--color1, #fff)" stroke-linejoin="round" stroke-linecap="round" stroke-miterlimit="4" stroke-width="1.6" d="M16.002 29.333c7.364 0 13.333-5.97 13.333-13.333s-5.969-13.333-13.333-13.333c-7.364 0-13.333 5.97-13.333 13.333s5.97 13.333 13.333 13.333z"></path>
<path fill="none" stroke="#fff" style="stroke: var(--color1, #fff)" stroke-linejoin="round" stroke-linecap="round" stroke-miterlimit="4" stroke-width="1.6" d="M16 8v8l5.333 2.667"></path>
</symbol>
<symbol id="icon-google-icon" viewBox="0 0 32 32">
<path fill="#ffc107" style="fill: var(--color2, #ffc107)" d="M29.071 13.389h-1.074v-0.055h-12v5.333h7.535c-1.099 3.105-4.053 5.333-7.535 5.333-4.418 0-8-3.582-8-8s3.582-8 8-8c2.039 0 3.895 0.769 5.307 2.026l3.771-3.771c-2.381-2.219-5.567-3.588-9.079-3.588-7.363 0-13.333 5.97-13.333 13.333s5.97 13.333 13.333 13.333c7.363 0 13.333-5.97 13.333-13.333 0-0.894-0.092-1.767-0.259-2.611z"></path>
<path fill="#ff3d00" style="fill: var(--color3, #ff3d00)" d="M4.204 9.794l4.381 3.213c1.185-2.935 4.056-5.007 7.415-5.007 2.039 0 3.895 0.769 5.307 2.026l3.771-3.771c-2.381-2.219-5.567-3.588-9.079-3.588-5.121 0-9.563 2.891-11.796 7.127z"></path>
<path fill="#4caf50" style="fill: var(--color4, #4caf50)" d="M16.002 29.333c3.444 0 6.573-1.318 8.939-3.461l-4.127-3.492c-1.384 1.052-3.074 1.621-4.813 1.62-3.468 0-6.413-2.211-7.522-5.297l-4.348 3.35c2.207 4.318 6.688 7.281 11.87 7.281z"></path>
<path fill="#1976d2" style="fill: var(--color5, #1976d2)" d="M29.074 13.389h-1.074v-0.055h-12v5.333h7.535c-0.526 1.478-1.473 2.769-2.725 3.714l0.002-0.001 4.127 3.492c-0.292 0.265 4.394-3.205 4.394-9.871 0-0.894-0.092-1.767-0.259-2.611z"></path>
</symbol>
<symbol id="icon-Group" viewBox="0 0 66 32">
<path fill="#fefefe" style="fill: var(--color6, #fefefe)" d="M33.19 11.618c2.191-3.359 3.318-5.208 5.335-8.301-0.108-0.258-0.15-0.393-0.221-0.563-1.746 2.677-5.336 8.304-5.336 8.304 0.108 0.258 0.133 0.349 0.222 0.561z"></path>
<path fill="#fefefe" style="fill: var(--color6, #fefefe)" d="M40.904 18.938c-2.203-1.012-3.88-1.802-6.173-2.855-1.080-1.34-2.191-2.662-3.364-4.027 0.478-0.74 0.91-1.417 1.236-1.926 0.081 0.205 0.162 0.408 0.241 0.602 2.151-3.298 3.42-5.365 5.334-8.301-0.26-0.639-0.619-1.605-0.955-2.431-1.874 2.874-3.593 5.631-5.335 8.301 0.056 0.138 0.129 0.325 0.213 0.541-0.55 0.854-0.984 1.537-1.495 2.331-0.054-0.062-0.107-0.124-0.161-0.186-0.29 0.447-0.572 0.891-0.952 1.478 0.054 0.063 0.108 0.126 0.162 0.189-0.268 0.422-0.546 0.832-0.845 1.312-0.254 0.061-0.405 0.109-0.692 0.178 0.060 0.229 0.091 0.352 0.166 0.601 0.26 0.311 0.481 0.58 0.751 0.903 0.446-0.697 0.926-1.415 1.376-2.109 1.026 1.205 2.037 2.407 2.978 3.574 2.381 1.125 4.763 2.25 7.144 3.272 0.287-0.205 0.489-0.336 0.763-0.532-0.165-0.385-0.233-0.539-0.393-0.915zM40.434 19.713c-0.129 0.124-0.325 0.084-0.403-0.035-0.083-0.127-0.073-0.335 0.080-0.427 0.059-0.035 0.189-0.093 0.327 0.040 0.117 0.113 0.119 0.303-0.004 0.422z"></path>
<path fill="#fefefe" style="fill: var(--color6, #fefefe)" d="M27.014 0.881l-0.15-0.881-1.461 0.36-0.337 2.266v7.381l-0.375 3.694 0.375 6.684h1.948l-0.262-7.552 0.749-7.557-0.487-4.396z"></path>
<path fill="#fefefe" style="fill: var(--color6, #fefefe)" d="M0 30.76v-1.534l1.195-0.344v-2.967h2.094v2.359l4.098-1.183v-1.175h2.094v2.11l-3.233 0.934 1.892 1.673h1.389v1.286h-2.631l-2.639-2.392-0.969 0.284v2.108h-2.094v-1.5l-1.195 0.341z"></path>
<path fill="#fefefe" style="fill: var(--color6, #fefefe)" d="M10.086 30.734v-1.346l1.195-0.214v-3.26h8.333v3.104l-6.239 1.123v1.775h-2.094v-1.397l-1.195 0.214zM13.374 28.796l4.145-0.745v-0.918h-4.145v1.664z"></path>
<path fill="#fefefe" style="fill: var(--color6, #fefefe)" d="M20.092 27.132v-1.218h9.536v2.213l-2.094-0.31v-0.686h-4.145v1.175h3.408v1.218h-3.408v1.175h4.145v-0.686l2.094-0.31v2.213h-8.333v-4.785h-1.203z"></path>
<path fill="#fefefe" style="fill: var(--color6, #fefefe)" d="M31.067 31.917v-6.242l5.092 1.602 5.084-1.602v6.242h-2.775v-1.218h0.683v-2.933l-1.95 0.592v3.559h-2.094v-3.559l-1.948-0.592v2.933h0.681v1.218h-2.775z"></path>
<path fill="#fefefe" style="fill: var(--color6, #fefefe)" d="M42.044 27.132v-1.218h3.288v6.003h-2.093v-4.785h-1.195z"></path>
<path fill="#fefefe" style="fill: var(--color6, #fefefe)" d="M46.133 27.132v-1.218h3.288v2.375h4.137v-2.375h2.094v6.003h-2.094v-2.41h-4.137v2.41h-2.093v-4.785h-1.195z"></path>
<path fill="#fefefe" style="fill: var(--color6, #fefefe)" d="M56.452 28.583v-1.339l1.202 0.216v-1.544h2.094v1.929l6.239 1.123v2.95h-8.333v-3.121l-1.202-0.214zM59.748 30.7h4.145v-0.762l-4.145-0.745v1.508z"></path>
</symbol>
<symbol id="icon-instagram-footer" viewBox="0 0 32 32">
<path fill="#fff" style="fill: var(--color1, #fff)" d="M27.929 11.073c-0.013-1.010-0.203-2.010-0.559-2.955-0.309-0.797-0.781-1.521-1.385-2.126s-1.328-1.076-2.126-1.385c-0.933-0.35-1.918-0.54-2.915-0.56-1.283-0.057-1.689-0.073-4.945-0.073s-3.673 0-4.947 0.073c-0.996 0.021-1.981 0.21-2.913 0.56-0.797 0.309-1.521 0.78-2.126 1.385s-1.076 1.329-1.385 2.126c-0.351 0.932-0.54 1.917-0.559 2.913-0.057 1.284-0.075 1.691-0.075 4.947s0 3.672 0.075 4.947c0.020 0.997 0.208 1.981 0.559 2.916 0.309 0.797 0.781 1.521 1.386 2.125s1.329 1.076 2.126 1.384c0.93 0.364 1.915 0.567 2.913 0.6 1.284 0.057 1.691 0.075 4.947 0.075s3.673 0 4.947-0.075c0.996-0.020 1.982-0.209 2.915-0.559 0.797-0.309 1.521-0.781 2.125-1.386s1.076-1.328 1.386-2.125c0.351-0.933 0.539-1.917 0.559-2.916 0.057-1.283 0.075-1.689 0.075-4.947-0.003-3.256-0.003-3.669-0.077-4.945zM15.992 22.136c-3.405 0-6.164-2.759-6.164-6.164s2.759-6.164 6.164-6.164c1.635 0 3.203 0.649 4.359 1.805s1.805 2.724 1.805 4.359c0 1.635-0.649 3.203-1.805 4.359s-2.724 1.805-4.359 1.805zM22.401 11.017c-0.189 0-0.376-0.037-0.55-0.109s-0.333-0.178-0.467-0.312c-0.133-0.133-0.239-0.292-0.311-0.466s-0.109-0.361-0.109-0.55c0-0.189 0.037-0.376 0.109-0.55s0.178-0.333 0.311-0.466c0.133-0.133 0.292-0.239 0.466-0.311s0.361-0.109 0.55-0.109c0.189 0 0.375 0.037 0.55 0.109s0.333 0.178 0.466 0.311c0.133 0.133 0.239 0.292 0.311 0.466s0.109 0.361 0.109 0.55c0 0.795-0.643 1.437-1.436 1.437z"></path>
<path fill="#fff" style="fill: var(--color1, #fff)" d="M15.992 19.976c2.211 0 4.004-1.793 4.004-4.004s-1.793-4.004-4.004-4.004c-2.211 0-4.004 1.793-4.004 4.004s1.793 4.004 4.004 4.004z"></path>
</symbol>
<symbol id="icon-instagram-header" viewBox="0 0 32 32">
<path fill="none" stroke="#fff" style="stroke: var(--color1, #fff)" stroke-linejoin="round" stroke-linecap="round" stroke-miterlimit="4" stroke-width="1.7143" d="M16 21.333c1.414 0 2.771-0.562 3.771-1.562s1.562-2.357 1.562-3.771c0-1.415-0.562-2.771-1.562-3.771s-2.357-1.562-3.771-1.562c-1.415 0-2.771 0.562-3.771 1.562s-1.562 2.357-1.562 3.771 0.562 2.771 1.562 3.771c1 1 2.357 1.562 3.771 1.562z"></path>
<path fill="none" stroke="#fff" style="stroke: var(--color1, #fff)" stroke-linejoin="miter" stroke-linecap="butt" stroke-miterlimit="4" stroke-width="1.7143" d="M4 21.333v-10.667c0-1.768 0.702-3.464 1.953-4.714s2.946-1.953 4.714-1.953h10.667c1.768 0 3.464 0.702 4.714 1.953s1.953 2.946 1.953 4.714v10.667c0 1.768-0.702 3.464-1.953 4.714s-2.946 1.953-4.714 1.953h-10.667c-1.768 0-3.464-0.702-4.714-1.953s-1.953-2.946-1.953-4.714z"></path>
<path fill="none" stroke="#fff" style="stroke: var(--color1, #fff)" stroke-linejoin="round" stroke-linecap="round" stroke-miterlimit="4" stroke-width="1.7143" d="M23.333 8.68l0.013-0.015"></path>
</symbol>
<symbol id="icon-Logo" viewBox="0 0 29 32">
<path fill="#ebe8e8" style="fill: var(--color7, #ebe8e8)" d="M14.491 18.035c3.714-5.22 5.624-8.093 9.044-12.9-0.183-0.4-0.254-0.611-0.375-0.876-2.96 4.16-9.045 12.904-9.045 12.904 0.183 0.402 0.225 0.541 0.376 0.872z"></path>
<path fill="#ebe8e8" style="fill: var(--color7, #ebe8e8)" d="M27.566 29.412c-3.733-1.573-6.578-2.8-10.464-4.437-1.83-2.083-3.714-4.137-5.702-6.258 0.809-1.151 1.542-2.202 2.095-2.992 0.137 0.318 0.274 0.634 0.408 0.937 3.646-5.125 5.796-8.337 9.042-12.901-0.44-0.993-1.049-2.494-1.619-3.778-3.177 4.466-6.091 8.752-9.042 12.901 0.095 0.215 0.219 0.505 0.362 0.841-0.933 1.327-1.668 2.388-2.535 3.623-0.091-0.096-0.182-0.192-0.273-0.289-0.491 0.694-0.968 1.385-1.614 2.297 0.091 0.098 0.183 0.196 0.275 0.294-0.455 0.656-0.926 1.293-1.433 2.039-0.43 0.094-0.686 0.17-1.174 0.276 0.102 0.356 0.154 0.547 0.282 0.934 0.441 0.483 0.815 0.901 1.274 1.404 0.756-1.083 1.569-2.198 2.332-3.278 1.74 1.873 3.453 3.741 5.049 5.554 4.036 1.749 8.072 3.497 12.109 5.084 0.487-0.318 0.828-0.523 1.294-0.827-0.278-0.6-0.393-0.84-0.664-1.423zM26.771 30.616c-0.219 0.193-0.55 0.131-0.683-0.055-0.141-0.197-0.125-0.521 0.135-0.663 0.1-0.054 0.32-0.145 0.555 0.062 0.199 0.176 0.202 0.472-0.006 0.657z"></path>
<path fill="#ebe8e8" style="fill: var(--color7, #ebe8e8)" d="M4.021 1.35l-0.254-1.369-2.477 0.56-0.572 3.521v11.47l-0.635 5.74 0.635 10.387h3.302l-0.445-11.735 1.27-11.745-0.825-6.831z"></path>
</symbol>
<symbol id="icon-logotype" viewBox="0 0 63 32">
<path fill="#dfdfdf" style="fill: var(--color8, #dfdfdf)" d="M31.666 9.26c1.964-2.669 2.975-4.138 4.783-6.595-0.097-0.205-0.134-0.312-0.198-0.448-1.566 2.127-4.784 6.597-4.784 6.597 0.097 0.205 0.119 0.277 0.199 0.446z"></path>
<path fill="#dfdfdf" style="fill: var(--color8, #dfdfdf)" d="M38.582 15.076c-1.975-0.804-3.479-1.432-5.534-2.269-0.968-1.065-1.964-2.115-3.016-3.2 0.428-0.588 0.815-1.126 1.108-1.53 0.072 0.163 0.145 0.324 0.216 0.479 1.928-2.62 3.066-4.263 4.783-6.595-0.233-0.508-0.555-1.275-0.856-1.932-1.68 2.283-3.221 4.474-4.783 6.595 0.050 0.11 0.116 0.258 0.191 0.43-0.494 0.678-0.882 1.221-1.341 1.852-0.048-0.049-0.096-0.099-0.144-0.148-0.26 0.355-0.512 0.708-0.854 1.174 0.049 0.050 0.097 0.1 0.145 0.15-0.24 0.335-0.49 0.661-0.758 1.042-0.227 0.048-0.363 0.087-0.621 0.141 0.054 0.182 0.082 0.279 0.149 0.477 0.233 0.247 0.431 0.461 0.674 0.718 0.4-0.554 0.83-1.124 1.234-1.676 0.92 0.958 1.826 1.913 2.67 2.839 2.135 0.894 4.27 1.788 6.405 2.599 0.258-0.163 0.438-0.267 0.684-0.423-0.148-0.306-0.208-0.429-0.352-0.727zM38.161 15.691c-0.116 0.099-0.291 0.067-0.361-0.028-0.075-0.101-0.066-0.266 0.071-0.339 0.053-0.028 0.169-0.074 0.294 0.032 0.105 0.090 0.107 0.241-0.003 0.335z"></path>
<path fill="#dfdfdf" style="fill: var(--color8, #dfdfdf)" d="M26.127 0.73l-0.135-0.7-1.31 0.286-0.302 1.8v5.865l-0.336 2.935 0.336 5.311h1.747l-0.235-6 0.671-6.004-0.436-3.492z"></path>
<path fill="#dfdfdf" style="fill: var(--color8, #dfdfdf)" d="M1.908 24.45v-1.219l1.071-0.273v-2.357h1.877v1.874l3.674-0.94v-0.933h1.877v1.677l-2.898 0.742 1.696 1.329h1.245v1.022h-2.359l-2.366-1.901-0.869 0.226v1.675h-1.877v-1.192l-1.072 0.271z"></path>
<path fill="#dfdfdf" style="fill: var(--color8, #dfdfdf)" d="M10.949 24.429v-1.069l1.071-0.17v-2.59h7.471v2.466l-5.593 0.893v1.41h-1.877v-1.11l-1.071 0.17zM13.898 22.89l3.717-0.592v-0.73h-3.717v1.322z"></path>
<path fill="#dfdfdf" style="fill: var(--color8, #dfdfdf)" d="M19.922 21.567v-0.967h8.549v1.758l-1.877-0.246v-0.545h-3.717v0.933h3.055v0.968h-3.055v0.933h3.717v-0.545l1.877-0.246v1.758h-7.471v-3.802h-1.079z"></path>
<path fill="#dfdfdf" style="fill: var(--color8, #dfdfdf)" d="M29.762 25.37v-4.959l4.565 1.273 4.558-1.273v4.959h-2.488v-0.968h0.612v-2.33l-1.748 0.47v2.828h-1.877v-2.828l-1.746-0.47v2.33h0.611v0.968h-2.488z"></path>
<path fill="#dfdfdf" style="fill: var(--color8, #dfdfdf)" d="M39.602 21.567v-0.967h2.948v4.769h-1.877v-3.802h-1.071z"></path>
<path fill="#dfdfdf" style="fill: var(--color8, #dfdfdf)" d="M43.269 21.567v-0.967h2.948v1.887h3.709v-1.887h1.877v4.769h-1.877v-1.915h-3.709v1.915h-1.877v-3.802h-1.071z"></path>
<path fill="#dfdfdf" style="fill: var(--color8, #dfdfdf)" d="M52.52 22.72v-1.064l1.078 0.172v-1.227h1.877v1.532l5.593 0.893v2.344h-7.471v-2.48l-1.078-0.17zM55.475 24.402h3.717v-0.606l-3.716-0.592v1.198z"></path>
<path fill="#dfdfdf" style="fill: var(--color8, #dfdfdf)" d="M8.136 29.916l-0.713-1.761h-0.886v2.129h0.605v-1.556h0.043l0.631 1.556h0.687l0.627-1.556h0.043v1.556h0.605v-2.129h-0.886l-0.713 1.761h-0.043z"></path>
<path fill="#dfdfdf" style="fill: var(--color8, #dfdfdf)" d="M10.988 28.196h-0.605v2.088h0.605v-2.088zM11.009 27.643c0-0.164-0.134-0.307-0.324-0.307-0.194 0-0.324 0.143-0.324 0.307s0.13 0.307 0.324 0.307 0.324-0.143 0.324-0.307z"></path>
<path fill="#dfdfdf" style="fill: var(--color8, #dfdfdf)" d="M12.802 28.073c-0.778 0-1.318 0.409-1.318 1.146s0.54 1.146 1.361 1.146c0.367 0 0.752-0.122 0.972-0.307l-0.173-0.246c-0.238 0.168-0.475 0.266-0.756 0.266-0.454 0-0.756-0.246-0.756-0.86s0.303-0.86 0.713-0.86c0.281 0 0.518 0.098 0.756 0.266l0.173-0.245c-0.22-0.183-0.605-0.306-0.972-0.306z"></path>
<path fill="#dfdfdf" style="fill: var(--color8, #dfdfdf)" d="M16.345 30.284l0.086 0.614h0.497v-0.901h-0.367v-1.842h-0.605v1.842h-1.080v-1.842h-0.605v2.129h2.074z"></path>
<path fill="#dfdfdf" style="fill: var(--color8, #dfdfdf)" d="M18.678 30.080c-0.397 0-0.674-0.18-0.743-0.635h1.845v-0.287c0-0.675-0.562-1.085-1.253-1.085-0.735 0-1.253 0.409-1.253 1.146s0.54 1.146 1.361 1.146c0.367 0 0.752-0.123 0.972-0.307l-0.173-0.246c-0.237 0.168-0.475 0.266-0.756 0.266zM18.527 28.339c0.303 0 0.605 0.246 0.605 0.819h-1.21c0.013-0.59 0.276-0.819 0.605-0.819z"></path>
<path fill="#dfdfdf" style="fill: var(--color8, #dfdfdf)" d="M22.998 28.073c-0.778 0-1.318 0.409-1.318 1.146s0.54 1.146 1.361 1.146c0.367 0 0.752-0.122 0.972-0.307l-0.173-0.246c-0.238 0.168-0.475 0.266-0.756 0.266-0.454 0-0.756-0.246-0.756-0.86s0.303-0.86 0.713-0.86c0.281 0 0.518 0.098 0.756 0.266l0.173-0.245c-0.221-0.183-0.605-0.306-0.972-0.306z"></path>
<path fill="#dfdfdf" style="fill: var(--color8, #dfdfdf)" d="M26.107 28.155l-0.994 1.597h-0.043v-1.597h-0.605v2.129h0.778l0.994-1.597h0.043v1.597h0.605v-2.129h-0.778z"></path>
<path fill="#dfdfdf" style="fill: var(--color8, #dfdfdf)" d="M27.253 30.305c0.030 0.008 0.061 0.016 0.091 0.020 0.056 0.013 0.121 0.021 0.19 0.021 0.432 0 0.683-0.205 0.713-0.758l0.065-1.146h0.908v1.843h0.605v-2.129h-2.074l-0.086 1.433c-0.021 0.369-0.13 0.471-0.281 0.471h-0.13v0.246h-0z"></path>
<path fill="#dfdfdf" style="fill: var(--color8, #dfdfdf)" d="M32.070 28.155l-0.994 1.597h-0.043v-1.597h-0.605v2.129h0.778l0.994-1.597h0.043v1.597h0.605v-2.129h-0.778z"></path>
<path fill="#dfdfdf" style="fill: var(--color8, #dfdfdf)" d="M37.126 28.155h-2.42v0.287h0.907v1.842h0.605v-1.842h0.907v-0.287h-0z"></path>
<path fill="#dfdfdf" style="fill: var(--color8, #dfdfdf)" d="M37.967 29.609c0-0.258 0.164-0.389 0.497-0.389h0.605v0.778h-0.605c-0.332-0-0.497-0.131-0.497-0.389zM38.465 28.933c-0.782 0-1.145 0.221-1.145 0.676s0.363 0.675 1.145 0.675h1.21v-1.351c0-0.512-0.41-0.86-1.145-0.86-0.272 0-0.657 0.086-0.907 0.246l0.151 0.246c0.194-0.127 0.453-0.205 0.713-0.205 0.346 0 0.583 0.18 0.583 0.573h-0.605z"></path>
<path fill="#dfdfdf" style="fill: var(--color8, #dfdfdf)" d="M42.98 28.073c-0.778 0-1.318 0.409-1.318 1.146s0.54 1.146 1.361 1.146c0.367 0 0.752-0.122 0.972-0.307l-0.173-0.246c-0.238 0.168-0.475 0.266-0.756 0.266-0.454 0-0.756-0.246-0.756-0.86s0.303-0.86 0.713-0.86c0.281 0 0.518 0.098 0.756 0.266l0.173-0.245c-0.221-0.183-0.605-0.306-0.972-0.306z"></path>
<path fill="#dfdfdf" style="fill: var(--color8, #dfdfdf)" d="M46.608 28.155h-2.42v0.287h0.907v1.842h0.605v-1.842h0.908v-0.287h-0z"></path>
<path fill="#dfdfdf" style="fill: var(--color8, #dfdfdf)" d="M48.596 28.155l-0.994 1.597h-0.043v-1.597h-0.605v2.129h0.778l0.993-1.597h0.043v1.597h0.605v-2.129h-0.778z"></path>
<path fill="#dfdfdf" style="fill: var(--color8, #dfdfdf)" d="M49.741 30.304c0.030 0.008 0.061 0.016 0.091 0.020 0.056 0.013 0.121 0.021 0.19 0.021 0.432 0 0.683-0.205 0.713-0.758l0.065-1.146h0.908v1.842h0.605v-2.129h-2.074l-0.086 1.433c-0.021 0.369-0.13 0.471-0.281 0.471h-0.13v0.245h-0z"></path>
<path fill="#dfdfdf" style="fill: var(--color8, #dfdfdf)" d="M55.184 28.073c-0.657 0-1.175 0.352-1.245 0.983h-0.419v-0.901h-0.605v2.129h0.605v-0.942h0.415c0.056 0.66 0.57 1.024 1.249 1.024 0.713 0 1.253-0.409 1.253-1.146s-0.54-1.147-1.253-1.147zM55.184 30.1c-0.303 0-0.605-0.246-0.605-0.881s0.303-0.88 0.605-0.88 0.605 0.246 0.605 0.88c0 0.635-0.302 0.881-0.605 0.881z"></path>
</symbol>

<symbol id="icon-mail" viewBox="0 0 32 32">
<path fill="none" stroke="#fff" style="stroke: var(--color1, #fff)" stroke-linejoin="round" stroke-linecap="round" stroke-miterlimit="4" stroke-width="1.6" d="M5.335 5.334h21.333c1.467 0 2.667 1.2 2.667 2.667v16c0 1.467-1.2 2.667-2.667 2.667h-21.333c-1.467 0-2.667-1.2-2.667-2.667v-16c0-1.467 1.2-2.667 2.667-2.667z"></path>
<path fill="none" stroke="#fff" style="stroke: var(--color1, #fff)" stroke-linejoin="round" stroke-linecap="round" stroke-miterlimit="4" stroke-width="1.6" d="M29.335 8l-13.333 9.333-13.333-9.333"></path>
</symbol>
<symbol id="icon-map-icon" viewBox="0 0 32 32">
<path fill="none" stroke="#fff" style="stroke: var(--color1, #fff)" stroke-linejoin="round" stroke-linecap="round" stroke-miterlimit="4" stroke-width="1.3333" d="M28 13.333c0 9.333-12 17.333-12 17.333s-12-8-12-17.333c0-3.183 1.264-6.235 3.515-8.485s5.303-3.515 8.485-3.515c3.183 0 6.235 1.264 8.485 3.515s3.515 5.303 3.515 8.485z"></path>
<path fill="none" stroke="#fff" style="stroke: var(--color1, #fff)" stroke-linejoin="round" stroke-linecap="round" stroke-miterlimit="4" stroke-width="1.3333" d="M16 17.333c2.209 0 4-1.791 4-4s-1.791-4-4-4-4 1.791-4 4c0 2.209 1.791 4 4 4z"></path>
</symbol>
<symbol id="icon-menu-burger" viewBox="0 0 32 32">
<path fill="none" stroke="#fff" style="stroke: var(--color1, #fff)" stroke-linejoin="round" stroke-linecap="round" stroke-miterlimit="4" stroke-width="1.5238" d="M4 8h24M4 16h24M4 24h24"></path>
</symbol>
<symbol id="icon-phone-icon" viewBox="0 0 32 32">
<path fill="none" stroke="#fff" style="stroke: var(--color1, #fff)" stroke-linejoin="round" stroke-linecap="round" stroke-miterlimit="4" stroke-width="1.6" d="M29.336 22.56v4c0.002 0.371-0.074 0.739-0.223 1.079s-0.367 0.646-0.641 0.897-0.597 0.442-0.948 0.561c-0.352 0.119-0.724 0.163-1.094 0.13-4.103-0.446-8.044-1.848-11.507-4.093-3.222-2.047-5.953-4.779-8-8-2.253-3.478-3.656-7.439-4.093-11.56-0.033-0.369 0.010-0.74 0.129-1.091s0.308-0.673 0.558-0.947c0.25-0.273 0.553-0.492 0.892-0.641s0.705-0.227 1.075-0.227h4c0.647-0.006 1.274 0.223 1.765 0.645s0.811 1.008 0.902 1.649c0.169 1.28 0.482 2.537 0.933 3.747 0.179 0.477 0.218 0.996 0.112 1.495s-0.353 0.956-0.712 1.319l-1.693 1.693c1.898 3.338 4.662 6.102 8 8l1.693-1.693c0.363-0.358 0.82-0.605 1.319-0.712s1.017-0.068 1.494 0.112c1.21 0.451 2.467 0.764 3.747 0.933 0.648 0.091 1.239 0.418 1.662 0.917s0.648 1.136 0.631 1.79z"></path>
</symbol>
<symbol id="icon-Star" viewBox="0 0 36 32">
<path fill="#ffe249" style="fill: var(--color9, #ffe249); stroke: var(--color10, #a18753)" stroke="#a18753" stroke-linejoin="miter" stroke-linecap="butt" stroke-miterlimit="4" stroke-width="1.4545" d="M18.182 2.269l3.56 10.52h11.417l-9.237 6.443 0.175 0.517 3.373 9.966-9.289-6.479-9.289 6.479 3.548-10.483-9.237-6.443h11.418l3.56-10.52z"></path>
</symbol>
</defs>
</svg>
